<mxfile host="app.diagrams.net" modified="2023-06-27T09:16:17.664Z" agent="Mozilla/5.0 (Macintosh; Intel Mac OS X 10_15_7) AppleWebKit/605.1.15 (KHTML, like Gecko) Version/16.5 Safari/605.1.15" version="21.5.1" etag="5_cQWDBug1srVwRHO-dj" type="github">
  <diagram name="PÃ¡gina-1" id="jHDC_FelxfFi5uV1Rocn">
    <mxGraphModel>
      <root>
        <mxCell id="0" />
        <mxCell id="1" parent="0" />
      </root>
    </mxGraphModel>
  </diagram>
</mxfile>
